HIERARCHY
ROOT SpineBase
{
  OFFSET 0.000000 0.000000 0.000000
  CHANNELS 6 Xposition Yposition Zposition Zrotation Xrotation Yrotation
  JOINT SpineMid
  {
    OFFSET 0.000000 29.338115 0.000000
    CHANNELS 3 Zrotation Xrotation Yrotation
    JOINT SpineShoulder
    {
      OFFSET -0.142244 21.849837 -0.741009
      CHANNELS 3 Zrotation Xrotation Yrotation
      JOINT Neck
      {
        OFFSET -0.096865 7.258814 -0.551551
        CHANNELS 3 Zrotation Xrotation Yrotation
        JOINT Head
        {
          OFFSET -3.083901 13.508068 -0.479460
          CHANNELS 3 Zrotation Xrotation Yrotation
          End Site
          {
            OFFSET 0 0 0
          }
        }
      }
      JOINT ShoulderLeft
      {
        OFFSET -16.061892 -2.559976 8.925877
        CHANNELS 3 Zrotation Xrotation Yrotation
        JOINT ElbowLeft
        {
          OFFSET -0.785341 -28.073661 1.936888
          CHANNELS 3 Zrotation Xrotation Yrotation
          JOINT WristLeft
          {
            OFFSET -1.068689 -21.812321 -2.651858
            CHANNELS 3 Zrotation Xrotation Yrotation
            JOINT HandLeft
            {
              OFFSET 0.072884 -6.010505 -1.094392
              CHANNELS 3 Zrotation Xrotation Yrotation
              JOINT HandTipLeft
              {
                OFFSET 1.226073 -6.134042 -0.109827
                CHANNELS 3 Zrotation Xrotation Yrotation
                End Site
                {
                  OFFSET 0 0 0
                }
              }
              JOINT ThumbLeft
              {
                OFFSET 2.275554 -0.968863 -4.510036
                CHANNELS 3 Zrotation Xrotation Yrotation
                End Site
                {
                  OFFSET 0 0 0
                }
              }
            }
          }
        }
      }
      JOINT ShoulderRight
      {
        OFFSET 13.751108 -1.785945 -9.895159
        CHANNELS 3 Zrotation Xrotation Yrotation
        JOINT ElbowRight
        {
          OFFSET 7.806841 -25.880348 -0.937351
          CHANNELS 3 Zrotation Xrotation Yrotation
          JOINT WristRight
          {
            OFFSET 2.095828 -26.729523 -9.966267
            CHANNELS 3 Zrotation Xrotation Yrotation
            JOINT HandRight
            {
              OFFSET -0.851868 -6.681283 -4.844011
              CHANNELS 3 Zrotation Xrotation Yrotation
              JOINT HandTipRight
              {
                OFFSET 0.971251 -5.312527 -5.715488
                CHANNELS 3 Zrotation Xrotation Yrotation
                End Site
                {
                  OFFSET 0 0 0
                }
              }
              JOINT ThumbRight
              {
                OFFSET -4.789756 0.520491 -1.496748
                CHANNELS 3 Zrotation Xrotation Yrotation
                End Site
                {
                  OFFSET 0 0 0
                }
              }
            }
          }
        }
      }
    }
  }
  JOINT HipLeft
  {
    OFFSET -6.067993 0.352243 -0.325194
    CHANNELS 3 Zrotation Xrotation Yrotation
    JOINT KneeLeft
    {
      OFFSET 2.168948 -35.245088 3.731865
      CHANNELS 3 Zrotation Xrotation Yrotation
      JOINT AnkleLeft
      {
        OFFSET 8.223992 -30.202905 6.552977
        CHANNELS 3 Zrotation Xrotation Yrotation
        JOINT FootLeft
        {
          OFFSET -6.698250 -3.188022 -12.316054
          CHANNELS 3 Zrotation Xrotation Yrotation
          End Site
          {
            OFFSET 0 0 0
          }
        }
      }
    }
  }
  JOINT HipRight
  {
    OFFSET 5.540896 2.048984 -6.419730
    CHANNELS 3 Zrotation Xrotation Yrotation
    JOINT KneeRight
    {
      OFFSET 5.707768 -32.157259 -1.710868
      CHANNELS 3 Zrotation Xrotation Yrotation
      JOINT AnkleRight
      {
        OFFSET 4.804188 -32.907185 6.920224
        CHANNELS 3 Zrotation Xrotation Yrotation
        JOINT FootRight
        {
          OFFSET -5.563628 -3.373304 -11.537025
          CHANNELS 3 Zrotation Xrotation Yrotation
          End Site
          {
            OFFSET 0 0 0
          }
        }
      }
    }
  }
}
MOTION
Frames: 14
Frame Time: 0.033333
24.611503 80.641816 310.921055 -0.000000 0.000000 27.698968 0.000000 0.000000 -27.698968 -0.000000 0.000000 0.000000 -0.000000 0.000000 0.000000 0.000000 0.000000 0.000000 -0.000000 0.000000 0.000000 -0.000000 0.000000 0.000000 -0.000000 0.000000 0.000000 -0.000000 0.000000 0.000000 0.000000 0.000000 0.000000 0.000000 0.000000 0.000000 -0.000000 0.000000 0.000000 -0.000000 0.000000 0.000000 -0.000000 0.000000 0.000000 -0.000000 0.000000 0.000000 0.000000 0.000000 0.000000 0.000000 0.000000 0.000000 0.000000 0.000000 -27.698968 -0.000000 0.000000 0.000000 -0.000000 0.000000 0.000000 0.000000 0.000000 0.000000 0.000000 0.000000 -27.698968 -0.000000 0.000000 0.000000 -0.000000 0.000000 0.000000 0.000000 0.000000 0.000000
24.665922 80.642157 311.004105 0.100725 0.087974 27.701935 -0.130076 -0.031066 -27.702047 -0.000000 0.000000 0.000000 -0.000000 0.000000 0.000000 0.000000 0.000000 0.000000 -0.000000 0.000000 0.000000 -0.227452 1.156403 -0.026676 -0.463137 2.176633 0.202533 -1.847553 -4.990744 -0.618188 0.000000 0.000000 0.000000 0.000000 0.000000 0.000000 -0.000000 0.000000 0.000000 -0.745880 -0.602431 0.227514 -0.998824 0.013179 1.117072 -0.469434 0.464554 1.047878 0.000000 0.000000 0.000000 0.000000 0.000000 0.000000 -0.130076 -0.031066 -27.702047 -0.000000 0.000000 0.000000 1.479632 -1.390810 -2.997423 0.000000 0.000000 0.000000 -0.130076 -0.031066 -27.702047 -0.000000 0.000000 0.000000 -0.000000 0.000000 0.000000 0.000000 0.000000 0.000000
24.688302 80.646038 311.058514 0.182093 0.165137 27.623267 -0.237904 -0.061885 -27.623658 -0.000000 0.000000 0.000000 -0.347057 -0.750157 -0.185940 0.000000 0.000000 0.000000 -0.392373 1.309470 -0.059261 -0.006869 0.961964 0.004287 -0.746146 3.851151 0.365744 -3.708075 -8.856377 -1.321995 0.000000 0.000000 0.000000 0.000000 0.000000 0.000000 -0.000000 0.000000 0.000000 -1.252317 -0.972520 0.381601 -1.722828 0.295448 1.878707 -0.695408 0.240238 1.676456 0.000000 0.000000 0.000000 0.000000 0.000000 0.000000 -0.237904 -0.061885 -27.623658 -0.000000 0.000000 0.000000 2.778036 -2.722349 -5.766260 0.000000 0.000000 0.000000 -0.487481 -1.361842 -27.872046 -0.387144 1.265823 0.249564 -0.000000 0.000000 0.000000 0.000000 0.000000 0.000000
24.678644 80.653460 311.084282 0.244091 0.231487 27.463385 -0.323341 -0.092827 -27.464140 -0.000000 0.000000 0.000000 -0.459834 -1.079706 -0.267314 0.000000 0.000000 0.000000 -0.543661 1.889763 -0.081494 0.027644 1.460863 -0.003871 -0.817842 4.949349 0.472624 -5.639916 -11.589851 -2.003470 0.000000 0.000000 0.000000 0.000000 0.000000 0.000000 -0.000000 0.000000 0.000000 -1.521585 -1.108990 0.467854 -2.143756 0.896077 2.251823 -0.816397 -0.675756 1.984996 0.000000 0.000000 0.000000 0.000000 0.000000 0.000000 -0.323341 -0.092827 -27.464140 -0.000000 0.000000 0.000000 3.817022 -3.864324 -8.115328 0.000000 0.000000 0.000000 -0.716362 -1.638061 -27.765036 -1.042014 0.935567 0.083812 0.670598 0.613916 0.227122 0.000000 0.000000 0.000000
24.636947 80.664423 311.081408 0.286699 0.287016 27.223250 -0.386240 -0.124067 -27.224387 -0.000000 0.000000 0.000000 -0.532101 -1.379516 -0.340467 0.000000 0.000000 0.000000 -0.665219 2.420538 -0.099694 0.086249 1.978617 -0.019435 -0.653519 5.413831 0.513945 -7.674357 -13.188163 -2.563809 0.000000 0.000000 0.000000 0.000000 0.000000 0.000000 -0.000000 0.000000 0.000000 -1.554921 -1.011229 0.488909 -2.232287 1.847308 2.205789 -0.917369 -2.296000 2.056464 0.000000 0.000000 0.000000 0.000000 0.000000 0.000000 -0.386240 -0.124067 -27.224387 -0.000000 0.000000 0.000000 4.538908 -4.686626 -9.869158 0.000000 0.000000 0.000000 -0.934203 -1.651310 -27.529812 -0.920377 0.867421 0.059661 0.700964 0.739481 0.250964 0.000000 0.000000 0.000000
24.563211 80.678927 311.049894 0.309891 0.331716 26.904357 -0.426453 -0.155580 -26.905833 -0.000000 0.000000 0.000000 -0.563761 -1.649966 -0.405089 0.000000 0.000000 0.000000 -0.757175 2.901932 -0.114437 0.168661 2.520008 -0.042987 -0.234784 5.197711 0.490792 -9.828750 -13.647099 -2.907659 0.000000 0.000000 0.000000 0.000000 0.000000 0.000000 -0.000000 0.000000 0.000000 -1.352375 -0.679027 0.444399 -1.954154 3.160301 1.709293 -1.028402 -4.637238 1.955017 0.000000 0.000000 0.000000 0.000000 0.000000 0.000000 -0.426453 -0.155580 -26.905833 -0.000000 0.000000 0.000000 4.909936 -5.086365 -10.894121 0.000000 0.000000 0.000000 -1.143674 -1.407565 -27.167719 -0.567950 0.615031 0.008424 0.799346 1.004067 -0.609082 0.000000 0.000000 0.000000
24.602129 80.683791 310.941632 0.448039 0.445242 26.398252 -0.599281 -0.199599 -26.401037 -0.000000 0.000000 0.000000 -0.551550 -1.906775 -0.464347 0.000000 0.000000 0.000000 -0.888770 3.488117 -0.132114 0.315338 3.013649 -0.064527 0.658165 3.105115 0.378977 -11.419299 -10.657627 -2.153132 0.000000 0.000000 0.000000 0.000000 0.000000 0.000000 -0.140099 -1.061853 -0.316765 -1.506209 0.142642 0.875896 -1.174635 6.750265 0.919286 -1.383534 -8.893348 2.223131 0.000000 0.000000 0.000000 0.000000 0.000000 0.000000 -0.599281 -0.199599 -26.401037 -0.000000 0.000000 0.000000 3.693601 -3.150908 -9.121847 0.000000 0.000000 0.000000 -2.176522 -1.933731 -26.797276 0.166497 1.270178 0.127039 0.684427 1.217460 -0.903423 0.000000 0.000000 0.000000
24.436976 80.694863 310.840506 0.383387 0.463649 25.825338 -0.547080 -0.250316 -25.828084 -0.000000 0.000000 0.000000 -0.456269 -2.157444 -0.517512 0.000000 0.000000 0.000000 -0.915758 3.887441 -0.141192 0.398617 3.775227 -0.108990 1.770478 1.916032 0.293553 -16.075505 -9.061125 -2.087176 0.000000 0.000000 0.000000 0.000000 0.000000 0.000000 0.053519 -1.026836 -0.311270 -0.939870 0.924820 0.648545 -0.766453 8.364907 -0.042138 -1.119116 -12.978506 1.616978 0.000000 0.000000 0.000000 0.000000 0.000000 0.000000 -0.547080 -0.250316 -25.828084 -0.000000 0.000000 0.000000 3.919002 -3.465059 -9.524567 0.000000 0.000000 0.000000 -2.241558 -1.187529 -26.071297 0.834750 0.717364 0.026979 0.566440 1.170240 -1.306382 0.000000 0.000000 0.000000
24.111531 80.721148 310.750750 0.184205 0.388242 25.212250 -0.332041 -0.272787 -25.213664 -0.000000 0.000000 0.000000 -0.354764 -2.199141 -0.521538 0.000000 0.000000 0.000000 -0.865006 4.121757 -0.144234 0.503674 4.700856 -0.178829 3.327065 0.560960 0.202027 -19.239771 -6.790857 -1.345153 0.000000 0.000000 0.000000 0.000000 0.000000 0.000000 0.407288 -1.165785 -0.362025 0.250741 2.499138 0.203098 1.156390 8.558636 -2.429075 -0.238524 -17.167030 0.207221 0.000000 0.000000 0.000000 0.000000 0.000000 0.000000 -0.332041 -0.272787 -25.213664 -0.000000 0.000000 0.000000 5.143034 -5.116229 -12.089951 0.000000 0.000000 0.000000 -1.649406 0.797121 -25.047379 1.719672 -1.770264 -0.334691 0.298274 1.735465 -1.737494 0.000000 0.000000 0.000000
23.655951 80.769688 310.770546 -0.095106 0.255764 24.746049 -0.020689 -0.272089 -24.745886 -0.000000 0.000000 0.000000 -0.274601 -2.330516 -0.547364 0.000000 0.000000 0.000000 -0.727524 4.226344 -0.141969 0.641426 5.392650 -0.262465 5.144310 -2.563242 0.173973 -21.417205 -1.722240 0.649537 0.000000 0.000000 0.000000 0.000000 0.000000 0.000000 2.004211 -0.390377 -0.182586 1.146449 4.759386 -0.767978 1.869557 6.879665 -4.237798 1.786929 -21.136507 -1.631862 0.000000 0.000000 0.000000 0.000000 0.000000 0.000000 -0.020689 -0.272089 -24.745886 -0.000000 0.000000 0.000000 8.508751 -11.140497 -18.302436 0.000000 0.000000 0.000000 -0.439963 4.173577 -23.925090 2.563346 -5.196728 -0.810185 0.030089 1.733994 -2.043375 0.000000 0.000000 0.000000
23.140477 80.838843 310.857956 -0.379197 0.103192 24.566647 0.301972 -0.251500 -24.565642 -0.000000 0.000000 0.000000 -0.243048 -2.520567 -0.589334 0.000000 0.000000 0.000000 -0.599440 4.379181 -0.141355 0.785415 5.776502 -0.332863 5.626290 -5.297811 0.295830 -22.859488 -0.901356 1.027209 0.000000 0.000000 0.000000 0.000000 0.000000 0.000000 4.098870 2.143951 0.416770 2.021617 6.064137 -2.345148 3.399276 4.475475 -6.569481 3.402278 -22.490787 -2.280531 0.000000 0.000000 0.000000 0.000000 0.000000 0.000000 0.301972 -0.251500 -24.565642 -0.000000 0.000000 0.000000 10.172237 -14.915281 -21.073731 0.000000 0.000000 0.000000 1.222425 8.524076 -22.994297 3.353800 -9.510147 -1.319587 -0.342907 1.520736 -2.235268 0.000000 0.000000 0.000000
22.613573 80.963843 310.987087 -0.649912 -0.214463 24.326339 0.680551 -0.072306 -24.327126 -0.000000 0.000000 0.000000 0.214473 -2.318205 -0.516772 0.000000 0.000000 0.000000 -0.427875 4.363877 -0.135696 0.878702 6.005694 -0.398102 4.475834 -7.738849 0.445285 -21.522512 0.113706 1.273086 0.000000 0.000000 0.000000 0.000000 0.000000 0.000000 6.485942 6.653780 1.370408 3.602403 6.422625 -4.641800 5.710986 -0.630422 -8.888116 3.332385 -21.561802 -2.010811 0.000000 0.000000 0.000000 0.000000 0.000000 0.000000 0.680551 -0.072306 -24.327126 -0.000000 0.000000 0.000000 10.178816 -15.230091 -19.622337 0.000000 0.000000 0.000000 2.922615 13.526085 -22.029044 3.966714 -14.237424 -1.904189 -0.521601 1.226884 -2.159574 0.000000 0.000000 0.000000
22.126696 81.117248 310.975160 -0.849395 -0.496584 24.995817 0.979667 0.091117 -25.000276 -0.000000 0.000000 0.000000 1.002932 -2.312499 -0.470894 0.000000 0.000000 0.000000 -0.243183 4.135884 -0.124047 0.704660 5.988222 -0.414934 2.008075 -9.260218 0.497859 -18.198905 1.226587 1.199996 0.000000 0.000000 0.000000 0.000000 0.000000 0.000000 9.433776 12.720364 2.387180 4.584232 5.151766 -7.041045 5.633753 -5.548760 -9.265452 3.536276 -18.284282 -2.375588 0.000000 0.000000 0.000000 0.000000 0.000000 0.000000 0.979667 0.091117 -25.000276 -0.877582 -0.190597 -0.244187 13.168270 -20.078941 -24.084392 0.000000 0.000000 0.000000 4.509482 17.534086 -22.234655 4.378654 -16.483583 -2.159554 -0.724229 -0.680128 -1.557418 0.000000 0.000000 0.000000
21.642535 81.141616 310.992740 -0.915115 -0.791433 26.125709 0.272911 -0.071328 -26.159762 0.163196 -0.117780 -0.022585 2.033866 -1.461135 -0.419504 0.000000 0.000000 0.000000 0.522221 4.565603 -0.058932 0.001891 6.368550 -0.399361 -1.054671 -11.074372 0.484377 -12.953537 0.844521 0.259097 0.000000 0.000000 0.000000 0.000000 0.000000 0.000000 13.502515 20.255235 2.927842 4.193375 2.730675 -9.162934 5.115297 -7.573566 -9.672931 2.195969 -15.964649 -0.730565 0.000000 0.000000 0.000000 0.000000 0.000000 0.000000 1.916964 1.030680 -26.046370 -1.578348 -1.330376 -0.488285 11.489867 -15.496780 -15.608250 0.000000 0.000000 0.000000 6.481803 21.324540 -23.112152 4.165976 -17.857198 -2.499031 -0.570692 -3.565478 -0.654661 0.000000 0.000000 0.000000
